<svg id="Layer_1" data-name="Layer 1" xmlns="http://www.w3.org/2000/svg" xmlns:xlink="http://www.w3.org/1999/xlink" viewBox="0 0 183.23 153.16"><defs><style>.cls-1{fill:url(#linear-gradient);}</style><linearGradient id="linear-gradient" y1="54.89" x2="183.23" y2="54.89" gradientTransform="matrix(1, 0, 0, -1, 0, 131.47)" gradientUnits="userSpaceOnUse"><stop offset="0.21" stop-color="#ff931e"/><stop offset="0.93" stop-color="#dd47a0"/></linearGradient></defs><path class="cls-1" d="M170.61.12c-8.25.9-16.68,5.05-23.88,9.15a114.25,114.25,0,0,0-22.09,16.64A170.64,170.64,0,0,0,105,48.52c-3.4,4.62-6.64,9.36-9.75,14.18-.48.74-1,1.51-1.58,2.3,0-.52,0-1,0-1.55-.08-2.4.07-6.22-2-7.57-.11-6.54-.56-13.07,0-19.61.43-5.21,3.29-23.61,11.94-18a1.88,1.88,0,0,0,1.58,1.61,2,2,0,0,0,2.07-1.71,1.64,1.64,0,0,0-1.88-2,1.91,1.91,0,0,0-1.19.85l-.16.13c-5.07-5.31-10.71,4.13-12,8.51-2.84,9.35-2.21,20.15-1,29.86a2.31,2.31,0,0,0-.47-.11,101.64,101.64,0,0,0-2.25-15.07C87,35.23,85.42,29,82.23,24.79c-1.87-2.48-5.25-4.64-8.33-3a4.47,4.47,0,0,0-2,6,1.37,1.37,0,0,0-.12.6,1.53,1.53,0,1,0,3.06.08A1.5,1.5,0,0,0,73,26.89h-.11l-.07,0q-.63-2.49,3.28-4.26a6,6,0,0,1,4.32,2,15.56,15.56,0,0,1,2.61,4.18,54.51,54.51,0,0,1,3.44,9.75c1.44,5.53,2.09,11.2,3.1,16.81a.82.82,0,0,0-.46.71c-1.67,1.08-1.84,3.43-1.74,5.68-2.94-4.52-6-9-9.18-13.31A170.64,170.64,0,0,0,58.61,25.9,115,115,0,0,0,36.52,9.26C29.32,5.16,20.89,1,12.64.11,5.9-.62.3,2.89,0,10.36c-.32,8.53,4.71,16.35,10,22.38,3,3.46,6.31,6.75,8.76,10.7,3.07,5,4,10.55,4.91,16.26,1.38,8.38,3.52,16.78,11.2,21.16,6.44,3.67,14.06,4.64,21.48,4.33-7.43,2.92-14.33,8.7-15.5,16.69-1,6.91,1.54,13.77.88,20.69-.61,6.38-4,12.2-3.85,18.71.25,11.33,10.54,15.13,19,8.9C66.52,143,73.74,131,79,120.22a163,163,0,0,0,9.25-24.36q.36,12.3.85,24.59a.81.81,0,0,0,1.38.59,7.14,7.14,0,0,0,1.61-4.53c.37-3.72.45-7.51.66-11.25.27-4.92.52-9.84.72-14.76a173.69,173.69,0,0,0,10.79,29.71c5.25,10.82,12.46,22.83,22.13,30,8.44,6.23,18.73,2.43,19-8.9.14-6.51-3.24-12.33-3.85-18.71-.66-6.92,1.89-13.78.88-20.69-1.17-8-8.07-13.77-15.5-16.69,7.42.31,15-.65,21.48-4.33,7.68-4.38,9.82-12.78,11.2-21.16.94-5.71,1.85-11.29,4.91-16.26,2.45-4,5.74-7.24,8.76-10.7,5.27-6,10.3-13.85,10-22.38-.29-7.47-5.89-11-12.63-10.25Z"/></svg>