<svg id="wordmark" data-name="Layer 1" xmlns="http://www.w3.org/2000/svg" viewBox="0 0 136.95 44.68">

<style>
#wordmark {fill: #dd47a0;}
</style>



<path d="M0,43.49a8.41,8.41,0,0,1,3-3.16,15.4,15.4,0,0,1,5.13-1.89,41.43,41.43,0,0,1,7.81-.68,3.53,3.53,0,0,1-1.08-1.43,4.61,4.61,0,0,1-.38-1.79,3.56,3.56,0,0,1,.28-1.44l.76-1.67H30.88l.39,1.16H17.72L17,34.15a3.23,3.23,0,0,0-.29,1.39,4.43,4.43,0,0,0,.48,2,2.93,2.93,0,0,0,1.33,1.38,43.53,43.53,0,0,0-8,.63,15.19,15.19,0,0,0-5.26,1.89,8.27,8.27,0,0,0-3,3.24l-2.16-1Zm3.78-5.4L9.23,26a3.54,3.54,0,0,0,.63,1.31L5.24,37.62C4.76,37.76,4.27,37.92,3.78,38.09ZM9.84,25.17a4.53,4.53,0,0,1,.48-1.77L17,8.47a6.78,6.78,0,0,0,.57-2.83,7.15,7.15,0,0,0-.29-2,56.23,56.23,0,0,0,7.65.6A4.37,4.37,0,0,0,26.19,4a4.12,4.12,0,0,0,1.09-.49L37.2,25.38a6.47,6.47,0,0,0-1.22.69q-.65.45-1.11.84a5.26,5.26,0,0,1-1.08.69,2.61,2.61,0,0,1-1.17.3,1.21,1.21,0,0,1-.7-.22.66.66,0,0,1-.3-.54.74.74,0,0,1,.23-.54,3.17,3.17,0,0,1,.7-.51,10.27,10.27,0,0,0-2.25.3c-.86.21-1.67.43-2.4.67s-1.59.46-2.54.67a13,13,0,0,1-2.63.31,10.71,10.71,0,0,1-2.9-.38,5.61,5.61,0,0,1-2.11-1,1.8,1.8,0,0,1-.77-1.4,3.31,3.31,0,0,0-1.06-2.42,3.58,3.58,0,0,0-4.83-.2c0,1,.36,1.5,1.09,1.51a2.74,2.74,0,0,0,.92-.21A2.56,2.56,0,0,1,14,23.7a1.46,1.46,0,0,1,1.29.72,2.74,2.74,0,0,1,.47,1.51A2.08,2.08,0,0,1,15,27.52a2.48,2.48,0,0,1-1.74.66,3.64,3.64,0,0,1-2.44-.88A2.75,2.75,0,0,1,9.84,25.17Zm1.52,3.32h0a4.33,4.33,0,0,0,1.92.4,3.19,3.19,0,0,0,2.14-.78,2.83,2.83,0,0,0,1-2,3.16,3.16,0,0,0,.88,1.11,2.94,2.94,0,0,1-1.14,1.52,3.23,3.23,0,0,1-1.88.59A4.52,4.52,0,0,1,12.38,29Zm6.17-4.65a1.49,1.49,0,0,0,.82,1.4h11l-6.26-15Zm.87,4.06a10.29,10.29,0,0,0,4.33.84,13,13,0,0,0,2.8-.32c1-.21,2-.47,3-.8s1.85-.54,2.4-.66a1.1,1.1,0,0,1,0,.18,1.36,1.36,0,0,0,.11.53c-.36.09-.9.25-1.65.47s-1.35.4-1.84.53-1.07.25-1.78.37a12,12,0,0,1-2,.17,10.16,10.16,0,0,1-4.33-.84ZM18.83,24l4.3-10.46,1.23,3L21.29,24ZM27.49.58l0-.32,2.16,1,8.51,18.91a4.37,4.37,0,0,0,.76,1.18,7.47,7.47,0,0,0,1,.07l2.16,1a6.37,6.37,0,0,0-.89,1.32,3.17,3.17,0,0,0-.29,1.35,7.72,7.72,0,0,0,.83,3l6.82,15.17-.21.14-2.16-1,0-.35L39.45,27.14a7.79,7.79,0,0,1-.85-3,4.15,4.15,0,0,1,1-2.57,7.65,7.65,0,0,1-1-.1,5.06,5.06,0,0,1-1-.32,2.92,2.92,0,0,1-1-.7,4.66,4.66,0,0,1-.76-1.2Zm4.2,29.58,1,.48,1.09,2.41A7,7,0,0,1,34.45,36a7,7,0,0,1-.12,1.22c-.08.44-.12.68-.12.7,0,.18,0,.27.12.28-.7-.07-1.08-.3-1.14-.68q0-.1.09-.45c0-.23.08-.47.11-.73a7.13,7.13,0,0,0-.61-3.73Zm.09-1.74a2,2,0,0,0,.84.18A3.25,3.25,0,0,0,34,28.28a5.7,5.7,0,0,0,1.19-.72c.33-.27.71-.56,1.15-.87A5.44,5.44,0,0,1,37.46,26h0l.37.79c-.25.15-.57.38-1,.68s-.74.56-1,.77a5.69,5.69,0,0,1-1,.56,3.11,3.11,0,0,1-1.2.25,2,2,0,0,1-.84-.17Zm.39,11.24a3.44,3.44,0,0,0,1.79.42,21.86,21.86,0,0,0,3.4-.42,22.34,22.34,0,0,1,3.49-.43A6,6,0,0,1,45,40.61l-.26-.06A7.64,7.64,0,0,0,43,40.36a21.18,21.18,0,0,0-3.45.43,21.39,21.39,0,0,1-3.46.43,3.89,3.89,0,0,1-1.61-.3l-2.17-1Z"/><path d="M47.6,37.9l.56-.14h3.2a18.54,18.54,0,0,1,10.55,2.93,5.22,5.22,0,0,1-1-1.19,4.94,4.94,0,0,1-.54-1.5,14.7,14.7,0,0,1-.22-1.63c0-.52-.05-1.18-.05-2V17.68l2.37,2.83-.07.14V35.38c0,.56,0,1,0,1.37s0,.76.09,1.23a5.71,5.71,0,0,0,.21,1.18,6.66,6.66,0,0,0,.37,1,3.76,3.76,0,0,0,.59,1,5.47,5.47,0,0,0,.86.8l-.14.19-2.12-1a13.31,13.31,0,0,0-1.57-1,20,20,0,0,0-7.2-1.25H49.76Zm3.46-1.41a8.26,8.26,0,0,0,1.11-4.22v-5a3.55,3.55,0,0,0,1,.95v4.57a8.52,8.52,0,0,1-.86,3.78,9.67,9.67,0,0,0-1,0Zm0-32.34h8L77.84,26.51V8.37a8.5,8.5,0,0,0-1.09-4.22h8.87a8.26,8.26,0,0,0-1.1,4.22v17h-.43a2.71,2.71,0,0,0-.84-2,2.84,2.84,0,0,0-2-.82,3,3,0,0,0-2.16.78c0,1,.36,1.5,1.09,1.51a2.79,2.79,0,0,0,.92-.22A2.56,2.56,0,0,1,82,24.4a.88.88,0,0,1,.75.45A1.83,1.83,0,0,1,83,25.93a3.19,3.19,0,0,1-1.58,2.66,6.61,6.61,0,0,1-3.84,1.1,12.29,12.29,0,0,1-5.29-1.14,12.43,12.43,0,0,1-4.27-3.36l-9.21-11V25.38h-.42a2.71,2.71,0,0,0-.84-2,2.87,2.87,0,0,0-2-.82,3,3,0,0,0-2.17.78c0,1,.37,1.5,1.09,1.51a2.79,2.79,0,0,0,.93-.22,2.51,2.51,0,0,1,.92-.22.91.91,0,0,1,.75.45,1.91,1.91,0,0,1,.31,1.08,2,2,0,0,1-.65,1.49A2.13,2.13,0,0,1,55.2,28a3,3,0,0,1-2.14-.86,2.84,2.84,0,0,1-.89-2.1V8.37A8.4,8.4,0,0,0,51.08,4.15ZM53.6,28.41v0a3.78,3.78,0,0,0,1.6.35,2.8,2.8,0,0,0,2-.76,2.71,2.71,0,0,0,.91-1.89h.77v1.44a2.75,2.75,0,0,1-1.05,1.22,2.87,2.87,0,0,1-1.59.46,3.77,3.77,0,0,1-1.59-.33ZM59.7,2.88l.07-.14,2.16,1,14.5,17.3.14.17V23Zm6.36,34.65a2,2,0,0,1,.61-1.48,2,2,0,0,1,1.46-.61,2.34,2.34,0,0,1,1.15.31,1.71,1.71,0,0,1,.8.88h-.15a1.93,1.93,0,0,0-1.13.68,1.89,1.89,0,0,0-.44,1.22,2.72,2.72,0,0,0,.81,1.95l.09.16a3.43,3.43,0,0,1-2.27-1A2.9,2.9,0,0,1,66.06,37.53Zm1.58,3.06.07-.13a4.08,4.08,0,0,0,1.76.39,6.78,6.78,0,0,0,2-.31,12.15,12.15,0,0,0,1.88-.78c.58-.3,1.19-.61,1.83-.91a11.65,11.65,0,0,1,2.26-.78,12.13,12.13,0,0,1,2.82-.31h7.5a3.45,3.45,0,0,1-.91-.84,4.26,4.26,0,0,1-.6-1A5.17,5.17,0,0,1,86,34.73a10.6,10.6,0,0,1-.15-1.22c0-.35,0-.77,0-1.24V26.93a9,9,0,0,1,.52-3.07,5.92,5.92,0,0,1,1.38-2.27,5.08,5.08,0,0,1-.84-.1,1.31,1.31,0,0,1-.57-.34,1.61,1.61,0,0,1-.37-.81,6.93,6.93,0,0,1-.12-1.43V8.37a7.19,7.19,0,0,1,.72-3.18,5.44,5.44,0,0,1,2-2.31l.57-.14,2.16,1a4.9,4.9,0,0,0-1.46,1,5.4,5.4,0,0,0-1,1.43,7.77,7.77,0,0,0-.54,1.58,7.18,7.18,0,0,0-.18,1.59V19.92a5.54,5.54,0,0,0,.18,1.63l1.95.9a5.23,5.23,0,0,0-1.53,2.26,8.72,8.72,0,0,0-.6,3.24v5.34a9.44,9.44,0,0,0,.59,3.77A3.78,3.78,0,0,0,90.56,39H82.48a11.86,11.86,0,0,0-2.79.32,12,12,0,0,0-2.27.77c-.64.31-1.25.61-1.83.92a12.25,12.25,0,0,1-1.89.77,6.9,6.9,0,0,1-2,.32,4.46,4.46,0,0,1-1.85-.44Zm2.43-3.34.14-.16a1.41,1.41,0,0,0,.92-.48,1.35,1.35,0,0,0,.34-.87,1.78,1.78,0,0,0-.36-1.09,2.34,2.34,0,0,0-1-.76l.13-.09,2.18,1a2.5,2.5,0,0,1,1,.8,2,2,0,0,1,.36,1.14,1.44,1.44,0,0,1-.45,1.06,1.5,1.5,0,0,1-1.1.45ZM71,28.6c.36.22.73.42,1.1.6l3.47,4.11a4.41,4.41,0,0,1,.91,2.9,6.26,6.26,0,0,1-.09,1c-.43.15-.87.32-1.32.52a5.53,5.53,0,0,0,.39-2,4.34,4.34,0,0,0-.91-2.9Zm1.68.86v0a13,13,0,0,0,5,.95,8,8,0,0,0,2.88-.52,6.07,6.07,0,0,0,2.27-1.53,3.57,3.57,0,0,0,1-2.25h.78v1.56A4.65,4.65,0,0,1,82.27,30a7.56,7.56,0,0,1-3.63.89,12.81,12.81,0,0,1-5.53-1.2Z"/><path d="M96.61,4a20,20,0,0,1,3.9-.45q5.8,0,5.8,4.71V22a8.34,8.34,0,0,0,.64,3.37h-1a3.5,3.5,0,0,0-1-2.54,3.45,3.45,0,0,0-2.53-1.06,3.5,3.5,0,0,0-2.31.84c0,1,.37,1.5,1.09,1.51a2.64,2.64,0,0,0,.92-.21,2.56,2.56,0,0,1,.93-.22,1.46,1.46,0,0,1,1.29.72,2.74,2.74,0,0,1,.47,1.51,2,2,0,0,1-.65,1.49,2.13,2.13,0,0,1-1.53.62,3.72,3.72,0,0,1-2.39-.83,3.45,3.45,0,0,1-1.29-2.09,17.81,17.81,0,0,1-.33-3.46V9.07a7.43,7.43,0,0,0-.53-2.58A8.7,8.7,0,0,0,96.61,4Zm3,23.7a5.33,5.33,0,0,0,1.11.7,13.73,13.73,0,0,0,1.37,2.57,13.41,13.41,0,0,0,5.1,4.48,13.57,13.57,0,0,1-6.12-5A14,14,0,0,1,99.65,27.67Zm1.37.81a4.92,4.92,0,0,0,1.57.26,2.8,2.8,0,0,0,2-.76,2.71,2.71,0,0,0,.91-1.89h1.76l.26.47h-1a2.71,2.71,0,0,1-.91,1.89,2.8,2.8,0,0,1-2,.76,4.67,4.67,0,0,1-1.83-.36ZM104.5,3.11l.18-.09,2.16,1a5.24,5.24,0,0,1,3,5.21V23a7.48,7.48,0,0,0,.67,3.24,5.87,5.87,0,0,0,1.9,2.33l.19.2a6.22,6.22,0,0,1-3.7-2.33A7.13,7.13,0,0,1,107.58,22V8.23A5.11,5.11,0,0,0,104.5,3.11Zm1.55,33.35,0-.14A19.46,19.46,0,0,0,114.4,38a19.69,19.69,0,0,0,7.87-1.52A14.8,14.8,0,0,0,128,32.19a15.51,15.51,0,0,0,3.06-6.6,9.73,9.73,0,0,1,.71-2,8.14,8.14,0,0,1,1.33-2.08l-.18,0a2.09,2.09,0,0,0-.63.12,2.49,2.49,0,0,1-.85.13V8.37a7.07,7.07,0,0,1,.73-3.18,5.37,5.37,0,0,1,2-2.31l.56-.14,2.16,1a5,5,0,0,0-1.45,1,5.06,5.06,0,0,0-1,1.43A7.72,7.72,0,0,0,134,7.76a7,7,0,0,0-.18,1.59V21.52l1.78.75-.6.88a10.37,10.37,0,0,0-1,1.8,8.23,8.23,0,0,0-.57,1.7,15.29,15.29,0,0,1-3.08,6.64,14.91,14.91,0,0,1-5.82,4.36,20,20,0,0,1-7.94,1.55,19.43,19.43,0,0,1-8.35-1.74Zm4.66-7v0a8.6,8.6,0,0,0,3.68.77,8.12,8.12,0,0,0,5.09-1.61,7.42,7.42,0,0,0,2.75-4.41,3,3,0,0,1,.88-.44,4.3,4.3,0,0,0-.48,2,2.78,2.78,0,0,0,.06.58,7.24,7.24,0,0,1-2.9,3.22,8.45,8.45,0,0,1-4.42,1.16,8.64,8.64,0,0,1-3.65-.79Zm2.35-26.39a2.82,2.82,0,0,1,1-2.19,3.56,3.56,0,0,1,2.44-.9,4.36,4.36,0,0,1,3.11,1.27l-.28-.07a3.79,3.79,0,0,0-.67-.06,3.28,3.28,0,0,0-2.32.9,2.81,2.81,0,0,0-1,2.11,2,2,0,0,0,.23.86l.11.12a2.22,2.22,0,0,1-.51.06,2.09,2.09,0,0,1-1.51-.63A2,2,0,0,1,113.06,3.09Zm1.64,3.7,0-.15a3.16,3.16,0,0,0,1.41.32,2.42,2.42,0,0,0,1.66-.6,1.87,1.87,0,0,0,.68-1.44,1.25,1.25,0,0,0-.78-1.25l.07-.12,2.17,1a1.46,1.46,0,0,1,.87,1.36,2,2,0,0,1-.73,1.55,2.63,2.63,0,0,1-1.78.64,3.42,3.42,0,0,1-1.44-.31ZM122.2,3a14.79,14.79,0,0,0,2,.73,7,7,0,0,0,1.86.4h5.26a8.26,8.26,0,0,0-1.11,4.22V21.66a18,18,0,0,1-.37,3.71,3.07,3.07,0,0,1-1.35,1.93A4.42,4.42,0,0,1,126,28a2.83,2.83,0,0,1-1.89-.66,2,2,0,0,1-.78-1.59,3.55,3.55,0,0,1,.33-1.52,7.48,7.48,0,0,1,1-1.52,4.85,4.85,0,0,0-2.27.6,6.81,6.81,0,0,0,.1-1.32v-16c0-.75,0-1.29,0-1.62A12.91,12.91,0,0,0,122.2,3Zm2.22,25.35a3.66,3.66,0,0,0,1.6.35,5,5,0,0,0,3.13-1c-.17.44-.36.86-.57,1.29a5.56,5.56,0,0,1-1.54.21,3.78,3.78,0,0,1-1.6-.35Z"/></svg>